<?xml version="1.0" standalone="no"?>
<!DOCTYPE svg PUBLIC "-//W3C//DTD SVG 20010904//EN"
 "http://www.w3.org/TR/2001/REC-SVG-20010904/DTD/svg10.dtd">
<svg version="1.0" xmlns="http://www.w3.org/2000/svg"
 width="12500.000000pt" height="2804.000000pt" viewBox="0 0 12500.000000 2804.000000"
 preserveAspectRatio="xMidYMid meet">

<g transform="translate(0.000000,2804.000000) scale(0.100000,-0.100000)"
fill="#ffffff" stroke="none">
<path d="M97090 17315 l0 -8065 1435 0 1435 0 0 8065 0 8065 -1435 0 -1435 0
0 -8065z"/>
<path d="M33160 24674 c-19 -2 -80 -9 -135 -15 -357 -38 -700 -155 -959 -326
-136 -90 -319 -273 -409 -409 -156 -235 -251 -513 -287 -839 -15 -134 -12
-462 5 -607 51 -436 198 -763 464 -1029 358 -357 875 -529 1596 -529 583 0
1045 121 1399 367 117 82 298 267 379 388 156 236 251 515 286 837 16 145 14
467 -4 605 -55 415 -198 739 -439 990 -232 243 -505 396 -873 489 -239 60
-373 76 -698 79 -159 2 -306 1 -325 -1z"/>
<path d="M33125 19280 c-750 -39 -1422 -209 -2060 -520 -515 -252 -917 -540
-1305 -936 -611 -625 -989 -1358 -1129 -2194 -70 -414 -80 -959 -25 -1375 73
-563 256 -1093 530 -1535 31 -50 54 -93 53 -94 -2 -2 -123 -9 -269 -15 -1105
-49 -1738 -55 -4125 -42 -1339 7 -2079 14 -2135 21 -209 27 -342 76 -422 156
-88 88 -119 186 -119 379 0 152 5 188 111 800 177 1024 450 2615 450 2620 0 3
-614 5 -1365 5 l-1365 0 -11 -26 c-5 -15 -30 -104 -54 -198 -85 -326 -153
-712 -192 -1086 -22 -210 -25 -934 -5 -1135 112 -1135 504 -2112 1164 -2905
429 -515 908 -897 1548 -1233 660 -346 1398 -565 2235 -661 433 -51 392 -50
2208 -53 l1707 -4 0 24 0 23 226 12 c794 43 1747 138 2444 242 683 102 1431
251 2010 401 107 28 206 48 220 46 14 -3 149 -36 300 -75 1476 -381 3270 -602
5380 -662 223 -6 10045 -10 27858 -10 l27512 0 0 2665 c0 1704 -4 2728 -10
2838 -75 1262 -383 2195 -969 2937 -96 122 -389 415 -511 511 -586 462 -1267
741 -2155 883 -454 72 -851 95 -1627 96 l-478 0 0 -1519 c0 -1442 1 -1519 18
-1515 80 18 1156 198 1257 210 299 36 500 -7 614 -131 82 -90 126 -207 158
-422 15 -96 17 -282 20 -1675 l4 -1568 -25538 0 c-16024 0 -25717 4 -26018 10
-581 12 -1276 37 -1501 56 l-72 5 61 97 c284 453 463 994 534 1614 24 215 24
779 0 996 -100 889 -397 1586 -965 2267 -114 136 -431 448 -572 561 -803 648
-1776 1023 -2860 1103 -204 16 -574 21 -765 11z m670 -2920 c396 -53 756 -197
1020 -408 316 -253 512 -569 596 -962 31 -144 34 -461 5 -590 -62 -284 -194
-523 -414 -751 -136 -141 -228 -218 -407 -338 -280 -188 -672 -376 -1071 -514
l-100 -35 -165 63 c-640 243 -1061 493 -1375 816 -314 324 -464 659 -464 1036
1 404 153 772 444 1072 346 356 795 564 1336 621 105 11 487 4 595 -10z"/>
<path d="M103300 17461 c0 -1632 1 -1719 18 -1715 88 20 3532 606 3611 614
258 26 446 -9 558 -104 84 -71 148 -217 178 -407 28 -180 35 -516 35 -1911 l0
-1398 -2740 0 -2740 0 0 -1645 0 -1645 4580 0 4581 0 -4 2743 c-3 2004 -7
2777 -15 2872 -7 72 -19 195 -28 275 -166 1586 -777 2691 -1846 3339 -603 366
-1356 587 -2263 666 -347 30 -669 35 -2287 35 l-1638 0 0 -1719z"/>
<path d="M15415 12904 c-270 -27 -453 -63 -640 -125 -780 -259 -1182 -900
-1152 -1839 4 -102 13 -231 21 -288 123 -826 628 -1320 1497 -1462 357 -58
854 -52 1194 15 742 147 1219 583 1380 1260 89 374 81 850 -20 1201 -106 364
-309 661 -596 867 -110 79 -355 203 -485 245 -132 44 -280 78 -439 102 -114
18 -195 22 -430 25 -159 2 -308 1 -330 -1z"/>
<path d="M86114 7719 c-942 -64 -1554 -512 -1749 -1277 -52 -209 -59 -277 -60
-592 0 -239 3 -316 18 -405 68 -413 214 -716 461 -960 219 -215 522 -370 878
-449 437 -97 982 -97 1416 0 678 151 1132 563 1298 1177 49 182 66 316 71 567
4 183 2 265 -11 373 -95 780 -548 1293 -1311 1487 -304 77 -645 104 -1011 79z"/>
<path d="M92223 7720 c-706 -48 -1225 -303 -1524 -748 -206 -307 -299 -654
-301 -1117 0 -303 29 -513 103 -742 211 -650 744 -1035 1559 -1127 476 -53
965 -13 1340 111 142 46 364 158 480 240 119 86 267 233 349 348 120 170 223
409 270 628 48 221 65 556 41 798 -68 673 -414 1170 -987 1418 -362 157 -830
224 -1330 191z"/>
</g>
</svg>
